<svg width="21" height="21" viewBox="0 0 21 21" fill="none" xmlns="http://www.w3.org/2000/svg">
<path d="M2.0625 20.625C2.0625 20.625 0.375 20.625 0.375 18.9375C0.375 17.25 2.0625 12.1875 10.5 12.1875C18.9375 12.1875 20.625 17.25 20.625 18.9375C20.625 20.625 18.9375 20.625 18.9375 20.625H2.0625ZM10.5 10.5C11.8427 10.5 13.1303 9.96663 14.0797 9.01723C15.0291 8.06782 15.5625 6.78016 15.5625 5.4375C15.5625 4.09484 15.0291 2.80717 14.0797 1.85777C13.1303 0.908369 11.8427 0.375 10.5 0.375C9.15734 0.375 7.86968 0.908369 6.92027 1.85777C5.97087 2.80717 5.4375 4.09484 5.4375 5.4375C5.4375 6.78016 5.97087 8.06782 6.92027 9.01723C7.86968 9.96663 9.15734 10.5 10.5 10.5Z" fill="#8C8C8C"/>
</svg>
